# xmcd
#
# Track frame offsets:
#  150
#  26962
#  46260
#  71130
#  95004
#  111287
#  137045
#  156415
#  184337
#  201310
#  223597
#  241880
#  251955
#  276982
#  296405
#
# Disc length: 4206 seconds
#
# Revision: 0
# Processed by: cddbd v1.5.1PL0 Copyright (c) Steve Scherf et al.
# Submitted via: Collectorz.com_Music_Collector 6.9
#
DISCID=f7106c0f
DTITLE=Robin Sylar - Tricked Out
DYEAR=2004
DGENRE=Blues -  Blues Electric -  Blues Guitar -  Blues Texas Style
TTITLE0=You're Gonna Miss Me
TTITLE1=Shaking All Over
TTITLE2=Iko Iko
TTITLE3=Hollywood Millionaire
TTITLE4=Heart of Stone
TTITLE5=Pretty Girls
TTITLE6=Shot Time
TTITLE7=Back to Luka
TTITLE8=Surf Puppy
TTITLE9=Can't Judge a Book
TTITLE10=Misirlou
TTITLE11=Sugar Bee
TTITLE12=Hand Jive
TTITLE13=Wine Spo-Dee-Odee
TTITLE14=Pipeline
EXTD=
EXTT0=
EXTT1=
EXTT2=
EXTT3=
EXTT4=
EXTT5=
EXTT6=
EXTT7=
EXTT8=
EXTT9=
EXTT10=
EXTT11=
EXTT12=
EXTT13=
EXTT14=
PLAYORDER=
